<svg xmlns="http://www.w3.org/2000/svg">
    <symbol id="angle-down" viewBox="0 0 256 512">
        <g>
            <path d="M119.5 326.9L3.5 209.1c-4.7-4.7-4.7-12.3 0-17l7.1-7.1c4.7-4.7 12.3-4.7 17 0L128 287.3l100.4-102.2c4.7-4.7 12.3-4.7 17 0l7.1 7.1c4.7 4.7 4.7 12.3 0 17L136.5 327c-4.7 4.6-12.3 4.6-17-.1z"/>
        </g>
    </symbol>
</svg>
<svg xmlns="http://www.w3.org/2000/svg">
    <symbol id="angle-right" viewBox="0 0 192 512">
        <g>
            <path d="M166.9 264.5l-117.8 116c-4.7 4.7-12.3 4.7-17 0l-7.1-7.1c-4.7-4.7-4.7-12.3 0-17L127.3 256 25.1 155.6c-4.7-4.7-4.7-12.3 0-17l7.1-7.1c4.7-4.7 12.3-4.7 17 0l117.8 116c4.6 4.7 4.6 12.3-.1 17z"/>
        </g>
    </symbol>
</svg>
<svg xmlns="http://www.w3.org/2000/svg">
<symbol id="arrow-down" viewBox="0 0 448 512">
    <g>
        <path d="M443.5 248.5l-7.1-7.1c-4.7-4.7-12.3-4.7-17 0L241 419.9V44c0-6.6-5.4-12-12-12h-10c-6.6 0-12 5.4-12 12v375.9L28.5 241.4c-4.7-4.7-12.3-4.7-17 0l-7.1 7.1c-4.7 4.7-4.7 12.3 0 17l211 211.1c4.7 4.7 12.3 4.7 17 0l211-211.1c4.8-4.8 4.8-12.3.1-17z"/>
    </g>
</symbol>
</svg>